# xmcd
#
# Track frame offsets:
#	150
#	29374
#	63812
#	85570
#	124676
#	142404
#	174350
#	198772
#	219183
#	247245
#	275224
#	303235
#	327181
#
# Disc length: 4710 seconds
#
# Revision: 1
# Processed by: cddbd v1.5.1PL0 Copyright (c) Steve Scherf et al.
# Submitted via: audiograbber 1.83.01
#
DISCID=b812640d
DTITLE=Mario BACKSLASH - Issue 07 (aka feelingz unsolicited)
DYEAR=2002
DGENRE=House
TTITLE0=Dubtribe Sound System - do it now
TTITLE1=Elting, Frank - you're out you're in
TTITLE2=Yost, Kevin - part one
TTITLE3=Hot Lizard - 165 drop
TTITLE4=Mandalay - not 17
TTITLE5=K-Hand - 2 low keys
TTITLE6=Solar House - the roots
TTITLE7=STP - an american in paris
TTITLE8=Dubtribe Sound System - do it now
TTITLE9=Solar House - got 2 b u
TTITLE10=A Million Sons - misti blu
TTITLE11=Migs, Miguel - take me to paradise
TTITLE12=Strong, Ame - tout est bleu
EXTD=
EXTT0=
EXTT1=
EXTT2=
EXTT3=
EXTT4=
EXTT5=
EXTT6=
EXTT7=
EXTT8=
EXTT9=
EXTT10=
EXTT11=
EXTT12=
PLAYORDER=
